HIERARCHY
ROOT Hips
{
  OFFSET 3.13124 94.3669 -3.18751
  CHANNELS  6 Xposition Yposition Zposition Zrotation Xrotation Yrotation
  JOINT LeftUpLeg
  {
    OFFSET 8.64259 1.95398 -2.38835
    CHANNELS 3 Zrotation Xrotation Yrotation
    JOINT LeftLeg
    {
      OFFSET 43.7702 0 0
      CHANNELS 3 Zrotation Xrotation Yrotation
      JOINT LeftFoot
      {
        OFFSET 40.6238 0 0
        CHANNELS 3 Zrotation Xrotation Yrotation
        JOINT LeftToeBase
        {
          OFFSET 12.7242 0 0
          CHANNELS 3 Zrotation Xrotation Yrotation
          End Site
          {
            OFFSET 0 0 0
          }
        }
      }
    }
  }
  JOINT RightUpLeg
  {
    OFFSET -8.2249 1.95398 -2.59336
    CHANNELS 3 Zrotation Xrotation Yrotation
    JOINT RightLeg
    {
      OFFSET 43.5653 0 0
      CHANNELS 3 Zrotation Xrotation Yrotation
      JOINT RightFoot
      {
        OFFSET 40.6238 0 0
        CHANNELS 3 Zrotation Xrotation Yrotation
        JOINT RightToeBase
        {
          OFFSET 12.7242 0 0
          CHANNELS 3 Zrotation Xrotation Yrotation
          End Site
          {
            OFFSET 0 0 0
          }
        }
      }
    }
  }
  JOINT Spine
  {
    OFFSET 0.165834 0.87714 6.61349
    CHANNELS 3 Zrotation Xrotation Yrotation
    JOINT Spine1
    {
      OFFSET 7.38962 1.71661e-005 0
      CHANNELS 3 Zrotation Xrotation Yrotation
      JOINT Spine2
      {
        OFFSET 11.9445 1.14441e-005 0
        CHANNELS 3 Zrotation Xrotation Yrotation
        JOINT Spine3
        {
          OFFSET 14.7254 4.19617e-005 0
          CHANNELS 3 Zrotation Xrotation Yrotation
          JOINT Spine4
          {
            OFFSET 10.9679 0 0
            CHANNELS 3 Zrotation Xrotation Yrotation
            JOINT RightShoulder
            {
              OFFSET 2.46616 -1.6653 3.69651
              CHANNELS 3 Zrotation Xrotation Yrotation
              JOINT RightArm
              {
                OFFSET 13.0012 0 0
                CHANNELS 3 Zrotation Xrotation Yrotation
                JOINT RightForeArm
                {
                  OFFSET 28.7848 1.52588e-005 0
                  CHANNELS 3 Zrotation Xrotation Yrotation
                  JOINT RightHand
                  {
                    OFFSET 26.5688 1.52588e-005 0
                    CHANNELS 3 Zrotation Xrotation Yrotation
                    End Site
                    {
                      OFFSET 0 0 0
                    }
                  }
                }
              }
            }
            JOINT LeftShoulder
            {
              OFFSET 2.38034 -1.29275 -3.75231
              CHANNELS 3 Zrotation Xrotation Yrotation
              JOINT LeftArm
              {
                OFFSET 16.3182 6.10352e-005 0
                CHANNELS 3 Zrotation Xrotation Yrotation
                JOINT LeftForeArm
                {
                  OFFSET 27.0901 0 0
                  CHANNELS 3 Zrotation Xrotation Yrotation
                  JOINT LeftHand
                  {
                    OFFSET 24.5451 1.52588e-005 0
                    CHANNELS 3 Zrotation Xrotation Yrotation
                    End Site
                    {
                      OFFSET 0 0 0
                    }
                  }
                }
              }
            }
            JOINT Neck
            {
              OFFSET 5.0226 -0.0266342 0
              CHANNELS 3 Zrotation Xrotation Yrotation
              JOINT Head
              {
                OFFSET 6.69363 2.86102e-005 0
                CHANNELS 3 Zrotation Xrotation Yrotation
                End Site
                {
                  OFFSET 0 0 0
                }
              }
            }
          }
        }
      }
    }
  }
}
MOTION
Frames:	8
Frame Time:	0.0333333
-0.888467 97.9401 -24.8508 120.871 -89.9935 120.913 -171.2 3.12105 95.1207 -8.54114 8.84649 0.583477 63.1594 1.83137 0.960379 28.7808 3.02507e-006 5.477e-006 179.202 1.89839 88.7446 -7.58329 -0.675937 -0.0333264 62.7223 -1.2923 -0.655142 28.7808 1.50518e-005 2.72289e-005 0.00338345 6.34388 -90.0427 14.1862 7.3277e-006 5.03975e-006 2.51528 1.27713e-006 -3.56718e-006 -20.0199 -1.57776e-006 -1.33716e-006 -0.00723943 0 -0 100.748 -18.6706 -85.678 -1.3014 39.1796 -13.1785 -1.68936 0.140242 -4.08587 -5.37983 -0.320017 -0.0162394 -78.7505 -21.2052 94.8303 16.2838 -37.8986 -3.61942 1.31845 37.9777 -6.76016 -0.157252 0.0145405 1.12643 1.74311 0.000450686 -0.00344998 -7.40423 -0.000616163 0.000902607 
-0.885613 97.9379 -24.8509 123.467 -89.9115 123.484 -171.194 3.16888 95.1031 -8.71259 8.91392 0.588372 63.1853 1.80295 0.940717 28.7808 3.02507e-006 5.477e-006 179.215 2.17751 88.7273 -8.27269 -0.566976 -0.0333257 63.0626 -1.26736 -0.646305 28.7808 1.50518e-005 2.72289e-005 0.00124687 6.344 -90.0162 14.1862 7.3277e-006 5.03975e-006 2.51528 1.27713e-006 -3.56718e-006 -20.0199 -1.57776e-006 -1.33716e-006 -0.00723943 2.48481e-017 -0 100.691 -18.7518 -85.7914 -1.34429 39.2219 -13.1126 -1.73027 0.140237 -4.11263 -5.37983 -0.320017 -0.0162394 -78.8037 -21.1348 94.7366 16.2644 -37.8796 -3.47583 1.07433 38.2399 -6.29733 1.28659 0.0361402 -0.425005 1.59287 0.00780944 -0.0568105 -7.31216 -0.0108267 0.0162585 
-0.86679 97.9296 -24.8584 86.458 -89.835 86.5317 -171.179 3.0706 95.15 -8.34199 8.94338 0.553529 63.2008 1.75428 0.920239 28.7808 3.02507e-006 5.477e-006 179.202 1.81259 88.7636 -7.40764 -0.491565 -0.0331676 62.6259 -1.19689 -0.596894 28.7808 1.50518e-005 2.72289e-005 0.00606082 6.34357 -90.0759 14.1862 4.07453e-005 8.30878e-005 2.51528 3.87686e-005 7.37999e-005 -20.0199 -1.57776e-006 8.39501e-005 -0.00723943 7.45442e-017 8.52301e-005 100.736 -18.7731 -85.8019 -1.27444 39.2329 -13.1439 -1.75877 0.140232 -4.14238 -5.37983 -0.320017 -0.0162394 -78.7218 -21.1173 94.8183 16.1943 -37.8624 -3.49919 1.10785 37.9795 -6.45566 1.40681 0.0516396 -0.0626089 1.72626 0.0202716 -0.0776301 -7.43488 -0.0241072 0.0354865 
-0.850643 97.971 -24.8616 93.1191 -89.7339 93.18 -171.173 3.10675 95.1358 -8.402 9.22091 0.598021 62.9669 1.7979 0.940443 28.7808 3.02507e-006 5.477e-006 179.176 0.906441 88.7499 -5.60789 -0.46153 -0.0304657 61.7834 -1.37397 -0.68854 28.7808 1.50518e-005 2.72289e-005 0.00533923 6.34364 -90.0703 14.1862 -0.000740918 -0.00162115 2.51528 -0.000807543 -0.00158213 -20.0199 -0.000352435 -0.00176474 -0.00723944 -0.000351528 -0.0017648 100.698 -18.7605 -85.855 -1.19933 39.2299 -13.1325 -1.79788 0.1402 -4.12854 -5.37983 -0.320017 -0.0162394 -78.7106 -21.1643 94.8939 16.1529 -37.9605 -3.53583 1.29477 38.0278 -6.53323 1.25126 0.0412501 -0.205343 1.70874 0.0429137 0.00113696 -7.43424 -0.0314183 -0.0976507 
-0.835502 97.957 -24.8751 91.035 -89.6294 91.0368 -171.18 3.2769 95.0726 -8.69095 9.29975 0.589377 63.0191 1.7673 0.916701 28.7808 3.02507e-006 5.477e-006 179.188 1.77878 88.6917 -7.39799 -0.350254 -0.024872 62.6447 -1.37174 -0.701481 28.7808 1.50518e-005 2.72289e-005 -0.00201735 6.34389 -90.0408 14.187 -0.0179265 -0.0434586 2.51605 -0.019825 -0.0426329 -20.0191 -0.00403876 -0.0468384 -0.00645746 -0.00404796 -0.0468458 100.633 -18.631 -85.9636 -1.18092 39.2313 -13.1211 -1.80363 0.139655 -4.15073 -5.37983 -0.320017 -0.0162394 -78.6324 -21.5829 95.1136 16.3133 -38.0537 -3.64378 1.28402 37.8785 -6.59731 1.1462 0.0476516 0.126367 1.741 0.0319982 0.340476 -7.3853 -0.00548091 -0.283929 
-0.809642 97.969 -24.8923 88.4308 -89.4989 88.4699 -171.17 3.22762 95.0961 -8.4657 9.38921 0.574085 62.943 1.74916 0.909713 28.7808 3.02507e-006 5.477e-006 179.181 1.29893 88.7185 -6.37004 -0.200205 -0.0158611 62.1353 -1.3966 -0.708245 28.7808 1.50518e-005 2.72289e-005 0.0130349 6.34375 -90.059 14.198 0.0128586 -0.0240252 2.52705 0.0117824 -0.0245652 -20.0081 0.0194835 -0.0190484 0.0045337 0.0194744 -0.0190571 100.695 -18.7827 -85.7995 -1.00465 39.2831 -13.2222 -1.83412 0.139113 -4.17732 -5.37983 -0.320017 -0.0162394 -78.7506 -21.1956 94.8286 16.1671 -37.922 -3.34008 1.29501 37.582 -6.59679 1.19635 0.0385215 -0.229445 1.70642 -0.0742329 0.0314697 -7.38537 -0.0689392 -0.146195 
-0.777495 97.9692 -24.9109 90.3724 -89.3471 90.3997 -171.17 3.24364 95.0743 -8.46317 9.57621 0.589454 62.9225 1.66475 0.860011 28.7808 3.02507e-006 5.477e-006 179.174 1.27089 88.6962 -6.36178 -0.0128581 -0.00535845 62.1314 -1.4314 -0.729039 28.7808 1.50518e-005 2.72289e-005 0.012232 6.3438 -90.0562 14.186 0.0118466 -0.0230148 2.51507 0.0108392 -0.023529 -20.0201 0.0182387 -0.0183838 -0.00744228 0.0182419 -0.0183947 100.654 -18.9477 -85.884 -1.14648 39.2628 -13.0997 -1.86249 0.138581 -4.16296 -5.37983 -0.320017 -0.0162394 -78.7248 -21.1481 94.895 16.0792 -37.8935 -3.35644 1.23232 37.3179 -6.55287 1.22688 0.0381919 -0.274834 1.68941 -0.0916821 -0.0228828 -7.28532 -0.0945127 -0.0953152 
-0.74307 97.9787 -24.9337 90.2587 -89.1905 90.2797 -171.169 3.27107 95.0493 -8.43321 9.71086 0.571682 62.8614 1.74257 0.904816 28.7808 3.02507e-006 5.477e-006 179.149 0.905226 88.6694 -5.61194 0.0702733 -0.000678596 61.7631 -1.40641 -0.708674 28.7808 1.50518e-005 2.72289e-005 0.017574 6.34474 -90.0723 14.1844 0.0168606 -0.0365142 2.51347 0.0157811 -0.0372647 -20.0217 0.0279576 -0.0294704 -0.00903126 0.0279665 -0.029467 100.624 -18.943 -85.9649 -1.14481 39.2386 -12.9809 -1.89726 0.138049 -4.15126 -5.37983 -0.320017 -0.0162394 -78.7456 -21.2795 94.8466 16.1645 -37.9213 -3.28723 1.25154 37.5102 -6.52516 1.3255 0.0388064 -0.365182 1.65521 -0.0873674 0.149267 -7.29146 -0.101678 -0.276371 
